<?xml version="1.0" encoding="UTF-8" standalone="no"?>
<svg
   version="1.0"
   width="512.000000pt"
   height="512.000000pt"
   viewBox="0 0 512.000000 512.000000"
   preserveAspectRatio="xMidYMid meet"
   id="svg5"
   sodipodi:docname="callitgood.svg"
   inkscape:version="1.4.2 (f4327f4, 2025-05-13)"
   xmlns:inkscape="http://www.inkscape.org/namespaces/inkscape"
   xmlns:sodipodi="http://sodipodi.sourceforge.net/DTD/sodipodi-0.dtd"
   xmlns="http://www.w3.org/2000/svg"
   xmlns:svg="http://www.w3.org/2000/svg">
  <defs
     id="defs5" />
  <sodipodi:namedview
     id="namedview5"
     pagecolor="#ffffff"
     bordercolor="#000000"
     borderopacity="0.25"
     inkscape:showpageshadow="2"
     inkscape:pageopacity="0.0"
     inkscape:pagecheckerboard="0"
     inkscape:deskcolor="#d1d1d1"
     inkscape:document-units="pt"
     showgrid="false"
     inkscape:zoom="2"
     inkscape:cx="-123.5"
     inkscape:cy="217.75"
     inkscape:window-width="3440"
     inkscape:window-height="1417"
     inkscape:window-x="-8"
     inkscape:window-y="-8"
     inkscape:window-maximized="1"
     inkscape:current-layer="g5" />
  <g
     transform="matrix(0.1,0,0,-0.1,-29.201473,525.70681)"
     fill="#000000"
     stroke="none"
     id="g5">
    <path
       d="m 1390.092,3973.6632 -247.8992,-260.399 c -5.6915,-70.9803 27.1382,-88.464 -68.2369,-181.8224 l -48.3706,-52.9935 c -32.04083,26.7973 -73.45599,8.9244 -190.75005,-87.3573 l -251.5357,-254.8958 369.10651,-369.1791 c 4.52222,-4.5231 270.68074,264.6637 270.68074,264.6637 0,0 117.1785,113.5978 86.6756,147.0811 l 34.5504,31.0653 c 77.7384,72.1807 190.891,108.728 289.3596,92.2817 282.3256,42.4304 517.1634,-401.9046 760.235,-589.5619 l 286.7072,264.7955 -334.3402,354.9178 c -338.594,357.2493 -294.9361,370.5999 -339.3529,442.7809 -22.8577,368.5734 49.3127,526.7804 848.5737,492.9325 0,0 103.8753,69.7974 94.3739,75.2794 -44.9156,27.4104 -378.3377,90.5292 -509.6292,114.285 C 1990.6952,4442.8928 1686.41,4284.1116 1390.092,3973.6632 Z"
       id="path2"
       style="stroke-width:0.888369"
       sodipodi:nodetypes="ccccccscccccccccccc" />
    <path
       d="m 3030.3852,2564.3717 c 20.1174,-19.3922 61.1411,-47.5993 92.0585,-61.7027 46.3853,-22.0366 69.063,-27.3254 150.5434,-31.7328 l 95.9669,-5.2887 789.1474,-760.707 c 434.3511,-418.697 778.2993,-761.58824 778.2993,-761.58824 l -249.2017,34.73141 -710.4915,683.66503 -708.6783,683.1376 -34.0263,-32.6143 -33.1122,-33.4959 699.5219,-672.9994 723.7778,-698.26022 60.0084,71.31713 252.2529,-35.43226 -461.9966,-465.79176 -78.9337,204.89188 64.8052,69.16148 -722.8635,695.88885 -697.705,672.5602 -33.112,-33.4957 -34.0267,-32.6144 707.7638,-682.2561 715.2064,-689.2536 78.932,-204.83746 C 3931.5343,971.59501 3392.5637,1455.5429 2890.448,1989.4821 l -50.8249,63.6384 c -4.8123,109.3018 -19.6932,146.3236 -90.1904,222.1298 l -60.5278,70.4323 286.5254,275.8994 c 1.9554,1.8828 35.7327,-36.9365 54.9549,-57.2103 z"
       id="path3"
       style="stroke-width:0.893058"
       sodipodi:nodetypes="ccccsccccccccccccccccccccccccsc" />
  </g>
  <g
     inkscape:groupmode="layer"
     id="layer1"
     inkscape:label="Layer 1" />
  <path
     d="m 21.926955,445.20344 19.732724,24.64769 C 133.32475,385.04533 221.18356,299.3251 312.13354,213.75502 l 35.639,33.53071 c 9.54776,8.98373 25.00435,8.98456 34.55209,0 l 53.24174,-50.0929 c 27.45595,-25.83335 39.02351,-62.58823 30.93999,-98.319678 l -5.7496,-25.418106 C 458.54743,63.688025 450.41112,56.033049 440.02827,53.953621 l -27.01548,-5.40949 C 376.83206,41.300309 337.21748,50.646382 308.51106,77.654613 L 255.26932,127.7467 c -9.54947,8.98375 -9.55036,23.52432 0,32.50808 l 35.639,33.52904 C 201.88629,278.27699 111.98864,361.82404 21.926955,445.20344 Z M 280.44586,144.00113 329.738,97.625806 C 350.73215,77.87362 379.84705,70.778805 406.7656,76.167895 l 25.04933,5.016223 5.32988,23.568302 c 5.95903,26.33735 -2.56672,53.4278 -22.80452,72.47001 l -49.29213,46.37613 -31.68854,-29.81393 29.53719,-27.78985 c -5.93793,-9.72847 -15.63011,7.87909 -21.49136,2.36375 -5.86035,-5.51448 12.02698,-18.57948 0.2653,-22.33416 l -29.53721,27.78987 z"
     id="path1-0"
     style="display:inline;stroke-width:0.839393"
     sodipodi:nodetypes="cccccccsccscccccccccccccsccc" />
</svg>
